<svg width="20" height="20" viewBox="0 0 20 20" fill="none" xmlns="http://www.w3.org/2000/svg">
<path d="M10 5.00005C9.99993 4.67047 9.90214 4.3483 9.719 4.07429C9.53586 3.80027 9.27559 3.58671 8.97109 3.46059C8.66659 3.33447 8.33154 3.30147 8.00828 3.36575C7.68503 3.43003 7.38809 3.5887 7.155 3.82172L2.155 8.82172C1.84255 9.13427 1.66702 9.55811 1.66702 10.0001C1.66702 10.442 1.84255 10.8658 2.155 11.1784L7.155 16.1784C7.38809 16.4114 7.68503 16.5701 8.00828 16.6344C8.33154 16.6986 8.66659 16.6656 8.97109 16.5395C9.27559 16.4134 9.53586 16.1998 9.719 15.9258C9.90214 15.6518 9.99993 15.3296 10 15.0001V5.00005Z" stroke="#CBA6F7" stroke-width="2" stroke-linecap="round" stroke-linejoin="round"/>
<path d="M18.3333 5.00005C18.3333 4.67047 18.2355 4.3483 18.0523 4.07429C17.8692 3.80027 17.6089 3.58671 17.3044 3.46059C16.9999 3.33447 16.6649 3.30147 16.3416 3.36575C16.0184 3.43003 15.7214 3.5887 15.4883 3.82172L10.4883 8.82172C10.1759 9.13427 10.0004 9.55811 10.0004 10.0001C10.0004 10.442 10.1759 10.8658 10.4883 11.1784L15.4883 16.1784C15.7214 16.4114 16.0184 16.5701 16.3416 16.6344C16.6649 16.6986 16.9999 16.6656 17.3044 16.5395C17.6089 16.4134 17.8692 16.1998 18.0523 15.9258C18.2355 15.6518 18.3333 15.3296 18.3333 15.0001V5.00005Z" stroke="#CBA6F7" stroke-width="2" stroke-linecap="round" stroke-linejoin="round"/>
</svg>
