<svg width="20" height="20" viewBox="0 0 20 20" fill="none" xmlns="http://www.w3.org/2000/svg">
<path d="M10 5.00005C10.0001 4.67047 10.0979 4.3483 10.281 4.07429C10.4641 3.80027 10.7244 3.58671 11.0289 3.46059C11.3334 3.33447 11.6685 3.30147 11.9917 3.36575C12.315 3.43003 12.6119 3.5887 12.845 3.82172L17.845 8.82172C18.1575 9.13427 18.333 9.55811 18.333 10.0001C18.333 10.442 18.1575 10.8658 17.845 11.1784L12.845 16.1784C12.6119 16.4114 12.315 16.5701 11.9917 16.6344C11.6685 16.6986 11.3334 16.6656 11.0289 16.5395C10.7244 16.4134 10.4641 16.1998 10.281 15.9258C10.0979 15.6518 10.0001 15.3296 10 15.0001V5.00005Z" stroke="#CBA6F7" stroke-width="2" stroke-linecap="round" stroke-linejoin="round"/>
<path d="M1.66666 5.00005C1.66673 4.67047 1.76451 4.3483 1.94765 4.07429C2.13079 3.80027 2.39107 3.58671 2.69557 3.46059C3.00007 3.33447 3.33512 3.30147 3.65838 3.36575C3.98163 3.43003 4.27857 3.5887 4.51166 3.82172L9.51166 8.82172C9.82411 9.13427 9.99963 9.55811 9.99963 10.0001C9.99963 10.442 9.82411 10.8658 9.51166 11.1784L4.51166 16.1784C4.27857 16.4114 3.98163 16.5701 3.65838 16.6344C3.33512 16.6986 3.00007 16.6656 2.69557 16.5395C2.39107 16.4134 2.13079 16.1998 1.94765 15.9258C1.76451 15.6518 1.66673 15.3296 1.66666 15.0001V5.00005Z" stroke="#CBA6F7" stroke-width="2" stroke-linecap="round" stroke-linejoin="round"/>
</svg>
