<svg xmlns="http://www.w3.org/2000/svg" viewBox="253.12 236.13 452.18 454.43"><path d="M253.12 463.36c0-30.72 6.08-59.84 17.92-88s28.16-52.16 48.32-72.32 44.48-36.48 72.64-48.64 57.6-18.24 88-18.24h36.48c5.12 1.28 7.36 4.48 7.36 8.96l1.6 28.16c1.28 40.64 15.68 75.2 43.84 103.68s62.08 43.84 102.08 45.44l26.24 2.24c5.12 0 7.68 2.56 7.68 7.36v31.36c.32 40.96-9.6 79.04-29.76 113.92s-47.36 62.4-82.24 82.88c-34.56 20.16-72.64 30.4-113.6 30.4-31.04 0-60.8-6.08-89.12-17.92-28.16-11.84-52.16-28.16-72.32-48.32s-36.16-44.48-48-72.32c-11.04-27.84-17.12-57.6-17.12-88.64m58.56 0q0 36.48 14.4 69.12c9.6 21.44 22.4 39.68 38.08 54.4s33.6 26.24 54.08 34.56c20.16 8.64 40.96 12.8 62.08 12.8 18.56 0 37.44-3.52 56.32-10.88q28.32-11.04 52.8-30.72c16.32-13.12 30.08-29.76 41.92-50.24s19.2-42.56 22.72-66.88c-52.16-10.88-94.08-33.28-125.44-67.2s-49.6-73.6-54.4-119.68q-14.4 1.92-28.8 7.68t-27.84 13.44T391.68 328c-24.96 16.96-44.48 38.4-58.24 64.64-14.72 27.2-21.76 48.64-21.76 70.72"></path></svg>
